<mxfile host="app.diagrams.net" modified="2024-06-14T04:32:46.502Z" agent="Mozilla/5.0 (Macintosh; Intel Mac OS X 10_15_7) AppleWebKit/537.36 (KHTML, like Gecko) Chrome/125.0.0.0 Safari/537.36" etag="fN1fduw7SO6JHiMDnxW8" version="24.5.4" type="github">
  <diagram id="R2lEEEUBdFMjLlhIrx00" name="Page-1">
    <mxGraphModel dx="622" dy="356" grid="1" gridSize="10" guides="1" tooltips="1" connect="1" arrows="1" fold="1" page="1" pageScale="1" pageWidth="827" pageHeight="1169" math="0" shadow="0" extFonts="Permanent Marker^https://fonts.googleapis.com/css?family=Permanent+Marker">
      <root>
        <mxCell id="0" />
        <mxCell id="1" parent="0" />
        <mxCell id="ykaJOqQvXJ7Slxh9bd_t-11" value="" style="edgeStyle=orthogonalEdgeStyle;rounded=0;orthogonalLoop=1;jettySize=auto;html=1;endArrow=none;endFill=0;" edge="1" parent="1" source="ykaJOqQvXJ7Slxh9bd_t-1" target="ykaJOqQvXJ7Slxh9bd_t-10">
          <mxGeometry relative="1" as="geometry" />
        </mxCell>
        <mxCell id="ykaJOqQvXJ7Slxh9bd_t-1" value="APPLICANT" style="whiteSpace=wrap;html=1;align=center;" vertex="1" parent="1">
          <mxGeometry x="200" y="160" width="100" height="40" as="geometry" />
        </mxCell>
        <mxCell id="ykaJOqQvXJ7Slxh9bd_t-13" value="" style="edgeStyle=orthogonalEdgeStyle;rounded=0;orthogonalLoop=1;jettySize=auto;html=1;endArrow=none;endFill=0;" edge="1" parent="1" source="ykaJOqQvXJ7Slxh9bd_t-10" target="ykaJOqQvXJ7Slxh9bd_t-12">
          <mxGeometry relative="1" as="geometry" />
        </mxCell>
        <mxCell id="ykaJOqQvXJ7Slxh9bd_t-10" value="has" style="rhombus;whiteSpace=wrap;html=1;" vertex="1" parent="1">
          <mxGeometry x="360" y="160" width="70" height="40" as="geometry" />
        </mxCell>
        <mxCell id="ykaJOqQvXJ7Slxh9bd_t-12" value="QUALIFICATION" style="whiteSpace=wrap;html=1;" vertex="1" parent="1">
          <mxGeometry x="480" y="160" width="100" height="40" as="geometry" />
        </mxCell>
        <mxCell id="ykaJOqQvXJ7Slxh9bd_t-14" value="" style="edgeStyle=orthogonalEdgeStyle;rounded=0;orthogonalLoop=1;jettySize=auto;html=1;endArrow=none;endFill=0;" edge="1" parent="1" source="ykaJOqQvXJ7Slxh9bd_t-15" target="ykaJOqQvXJ7Slxh9bd_t-17">
          <mxGeometry relative="1" as="geometry" />
        </mxCell>
        <mxCell id="ykaJOqQvXJ7Slxh9bd_t-15" value="POSITION" style="whiteSpace=wrap;html=1;align=center;" vertex="1" parent="1">
          <mxGeometry x="200" y="300" width="100" height="40" as="geometry" />
        </mxCell>
        <mxCell id="ykaJOqQvXJ7Slxh9bd_t-16" value="" style="edgeStyle=orthogonalEdgeStyle;rounded=0;orthogonalLoop=1;jettySize=auto;html=1;endArrow=none;endFill=0;" edge="1" parent="1" source="ykaJOqQvXJ7Slxh9bd_t-17">
          <mxGeometry relative="1" as="geometry">
            <mxPoint x="480" y="320" as="targetPoint" />
          </mxGeometry>
        </mxCell>
        <mxCell id="ykaJOqQvXJ7Slxh9bd_t-17" value="has" style="rhombus;whiteSpace=wrap;html=1;" vertex="1" parent="1">
          <mxGeometry x="360" y="300" width="70" height="40" as="geometry" />
        </mxCell>
        <mxCell id="ykaJOqQvXJ7Slxh9bd_t-18" value="QUALIFICATION" style="whiteSpace=wrap;html=1;" vertex="1" parent="1">
          <mxGeometry x="480" y="300" width="100" height="40" as="geometry" />
        </mxCell>
        <mxCell id="ykaJOqQvXJ7Slxh9bd_t-19" value="&lt;h1 style=&quot;margin-top: 0px;&quot;&gt;เงื่อนไขทางธุรกิจ&lt;/h1&gt;&lt;p&gt;1. ผู้สมัครแต่ละราย (APPLICANT) สามารถระบุคุณสมบัติ/ความรู้ความสามารถเฉพาะตำแหน่ง&amp;nbsp;&lt;span style=&quot;background-color: initial;&quot;&gt;(QUALIFICATION) ได้ไม่เกิน 5 รายการ&amp;nbsp; โดยที่คุณสมบัติ/ความรู้ความสามารถเฉพาะตำแหน่งของผู้สมัครแต่&lt;/span&gt;&lt;span style=&quot;background-color: initial;&quot;&gt;ละรายอาจจะเหมือนกันได้&lt;/span&gt;&lt;/p&gt;" style="text;html=1;whiteSpace=wrap;overflow=hidden;rounded=0;" vertex="1" parent="1">
          <mxGeometry x="200" y="60" width="440" height="130" as="geometry" />
        </mxCell>
        <mxCell id="ykaJOqQvXJ7Slxh9bd_t-20" value="&lt;div&gt;2. ตำแหน่งที่เปิดรับ (POSITION) แต่ละตำแหน่ง สามารถระบุคุณสมบัติ/ความสามารถเฉพาะ&lt;span style=&quot;background-color: initial;&quot;&gt;ตำแหน่ง ได้มากกว่า 1 รายการ ในขณะเดียวกันคุณสมบัติที่ระบุเหล่านี้อาจจะปรากฏในตำแหน่งต่างๆ ที่&lt;/span&gt;&lt;span style=&quot;background-color: initial;&quot;&gt;แตกต่างกันได้&lt;/span&gt;&lt;/div&gt;" style="text;html=1;align=left;verticalAlign=middle;whiteSpace=wrap;rounded=0;" vertex="1" parent="1">
          <mxGeometry x="200" y="240" width="440" height="50" as="geometry" />
        </mxCell>
        <mxCell id="ykaJOqQvXJ7Slxh9bd_t-21" value="&lt;div&gt;3. ผู้สมัครแต่ละรายอาจจะสมัคร (apply) ในตำแหน่งที่เปิดรับได้ไม่เกิน 3 ตำแหน่ง และในแต่ละ&lt;span style=&quot;background-color: initial;&quot;&gt;ตำแหน่งที่เปิดรับ อาจจะมีผู้สมัครมากกว่า 1 คนขึ้นไปก็ได้&amp;nbsp; ทั้งนี้ขึ้นอยู่กับคุณสมบัติเฉพาะตำแหน่งและจำนวน&lt;/span&gt;&lt;span style=&quot;background-color: initial;&quot;&gt;ตำแหน่งว่างที่เปิดรับ&amp;nbsp; เมื่อผู้สมัครทำการสมัครตำแหน่งใดจะต้องระบุวันที่ที่สมัครด้วย (APPLY_DATE)&lt;/span&gt;&lt;/div&gt;" style="text;html=1;align=left;verticalAlign=middle;whiteSpace=wrap;rounded=0;" vertex="1" parent="1">
          <mxGeometry x="200" y="370" width="440" height="70" as="geometry" />
        </mxCell>
        <mxCell id="ykaJOqQvXJ7Slxh9bd_t-22" value="" style="edgeStyle=orthogonalEdgeStyle;rounded=0;orthogonalLoop=1;jettySize=auto;html=1;endArrow=none;endFill=0;" edge="1" parent="1" source="ykaJOqQvXJ7Slxh9bd_t-23" target="ykaJOqQvXJ7Slxh9bd_t-25">
          <mxGeometry relative="1" as="geometry" />
        </mxCell>
        <mxCell id="ykaJOqQvXJ7Slxh9bd_t-23" value="POSITION" style="whiteSpace=wrap;html=1;align=center;" vertex="1" parent="1">
          <mxGeometry x="200" y="450" width="100" height="40" as="geometry" />
        </mxCell>
        <mxCell id="ykaJOqQvXJ7Slxh9bd_t-24" value="" style="edgeStyle=orthogonalEdgeStyle;rounded=0;orthogonalLoop=1;jettySize=auto;html=1;endArrow=none;endFill=0;" edge="1" parent="1" source="ykaJOqQvXJ7Slxh9bd_t-25">
          <mxGeometry relative="1" as="geometry">
            <mxPoint x="480" y="470" as="targetPoint" />
          </mxGeometry>
        </mxCell>
        <mxCell id="ykaJOqQvXJ7Slxh9bd_t-25" value="has" style="rhombus;whiteSpace=wrap;html=1;" vertex="1" parent="1">
          <mxGeometry x="360" y="450" width="70" height="40" as="geometry" />
        </mxCell>
        <mxCell id="ykaJOqQvXJ7Slxh9bd_t-26" value="QUALIFICATION" style="whiteSpace=wrap;html=1;" vertex="1" parent="1">
          <mxGeometry x="480" y="450" width="100" height="40" as="geometry" />
        </mxCell>
      </root>
    </mxGraphModel>
  </diagram>
</mxfile>
